<?xml version="1.0" standalone="no"?>
<!DOCTYPE svg PUBLIC "-//W3C//DTD SVG 20010904//EN"
 "http://www.w3.org/TR/2001/REC-SVG-20010904/DTD/svg10.dtd">
<svg version="1.0" xmlns="http://www.w3.org/2000/svg"
 width="491.000000pt" height="148.000000pt" viewBox="0 0 491.000000 148.000000"
 preserveAspectRatio="xMidYMid meet">

<g transform="translate(0.000000,148.000000) scale(0.100000,-0.100000)"
fill="#F8F8F8" stroke="none">
<path d="M2010 871 c0 -117 -3 -151 -14 -161 -22 -17 -60 -8 -71 18 -7 16 -18
22 -41 22 -28 0 -31 -3 -26 -25 7 -41 56 -75 109 -75 36 0 50 6 74 29 l29 29
0 156 0 156 -30 0 -30 0 0 -149z"/>
<path d="M2160 835 l0 -185 105 0 105 0 0 25 c0 24 -2 25 -75 25 l-75 0 0 55
0 55 65 0 c62 0 65 1 65 25 0 23 -4 24 -62 27 l-63 3 -3 53 -3 52 75 0 c74 0
76 1 76 25 l0 25 -105 0 -105 0 0 -185z"/>
<path d="M2430 835 l0 -185 30 0 30 0 0 76 0 75 27 -3 c23 -2 35 -16 68 -75
38 -70 41 -73 77 -73 l38 0 -47 77 c-35 58 -43 78 -32 82 33 11 69 60 69 95 0
88 -41 116 -169 116 l-91 0 0 -185z m184 119 c21 -20 20 -63 -1 -86 -12 -13
-30 -18 -70 -18 l-53 0 0 60 0 60 54 0 c36 0 60 -5 70 -16z"/>
<path d="M2760 835 l0 -185 105 0 105 0 0 25 c0 24 -2 25 -75 25 l-75 0 0 55
0 55 65 0 c62 0 65 1 65 25 0 23 -4 24 -62 27 l-63 3 -3 53 -3 52 75 0 c74 0
76 1 76 25 l0 25 -105 0 -105 0 0 -185z"/>
<path d="M3030 836 l0 -186 30 0 29 0 3 127 3 127 56 -125 c48 -106 59 -124
78 -124 20 0 31 17 73 110 27 61 53 114 59 119 5 6 9 -36 9 -112 l0 -122 30 0
30 0 0 186 0 185 -37 -3 -37 -3 -60 -137 c-34 -76 -63 -138 -66 -138 -3 0 -33
62 -66 138 l-62 137 -36 3 -36 3 0 -185z"/>
<path d="M1640 835 c0 -9 142 -338 149 -346 10 -12 264 -22 260 -11 -2 6 -51
52 -109 103 -58 50 -123 108 -145 128 -77 70 -155 133 -155 126z"/>
</g>
</svg>
