<?xml version="1.0" standalone="no"?>
<!DOCTYPE svg PUBLIC "-//W3C//DTD SVG 20010904//EN"
 "http://www.w3.org/TR/2001/REC-SVG-20010904/DTD/svg10.dtd">
<svg version="1.0" xmlns="http://www.w3.org/2000/svg"
 width="720.000000pt" height="337.000000pt" viewBox="0 0 720.000000 337.000000"
 preserveAspectRatio="xMidYMid meet">

<g transform="translate(0.000000,337.000000) scale(0.100000,-0.100000)"
fill="#142AEF" stroke="none">
<path d="M0 1685 l0 -1685 3600 0 3600 0 0 1685 0 1685 -3600 0 -3600 0 0
-1685z m2617 498 c134 -63 191 -228 124 -366 -20 -40 -25 -45 -42 -37 -18 10
-18 12 3 51 48 93 33 193 -40 269 -116 119 -301 91 -376 -57 -40 -80 -26 -181
34 -255 32 -38 102 -78 138 -78 18 0 22 6 22 33 0 29 -5 34 -48 54 -119 55
-125 221 -11 281 88 47 189 9 224 -82 19 -49 15 -99 -9 -132 -11 -14 -18 -16
-26 -8 -9 9 -9 21 0 51 30 98 -77 186 -169 139 -39 -21 -61 -58 -61 -106 0
-48 22 -85 61 -106 15 -7 30 -14 32 -14 3 0 8 28 11 62 l7 62 35 -79 c19 -44
80 -184 136 -312 l100 -232 -138 -175 c-77 -96 -145 -175 -153 -176 -11 0 -12
41 -7 248 4 136 9 293 12 350 l6 102 -26 0 c-104 0 -220 122 -233 243 -17 170
133 320 302 300 22 -3 64 -16 92 -30z m423 -243 c0 -108 -4 -160 -14 -185 -36
-86 -176 -86 -212 1 -17 42 -12 54 24 54 21 0 30 -7 39 -30 9 -24 17 -30 42
-30 20 0 34 7 41 19 5 11 10 86 10 170 l0 151 35 0 35 0 0 -150z m310 125 c0
-24 -2 -25 -75 -25 l-75 0 0 -60 0 -60 65 0 c63 0 65 -1 65 -25 0 -24 -2 -25
-65 -25 l-65 0 0 -60 0 -60 75 0 75 0 0 -30 0 -31 -107 3 -108 3 -3 198 -2
197 110 0 110 0 0 -25z m274 11 c44 -18 66 -52 66 -99 0 -38 -23 -97 -38 -97
-5 0 -17 -6 -27 -14 -18 -13 -17 -17 23 -84 23 -39 42 -75 42 -81 0 -18 -56
-13 -72 7 -8 9 -31 45 -49 79 -29 53 -38 63 -61 63 l-28 0 0 -80 0 -80 -30 0
-30 0 0 200 0 200 85 0 c51 0 99 -6 119 -14z m356 -11 c0 -24 -2 -25 -75 -25
l-75 0 0 -60 0 -60 70 0 c68 0 70 -1 70 -25 0 -24 -2 -25 -70 -25 l-70 0 0
-60 0 -60 75 0 75 0 0 -30 0 -31 -107 3 -108 3 -3 198 -2 197 110 0 110 0 0
-25z m210 -127 c36 -82 67 -148 70 -148 3 0 34 67 70 148 l66 147 37 3 37 3
-2 -198 -3 -198 -30 0 -30 0 -3 130 -3 130 -58 -130 c-79 -175 -84 -175 -160
-5 l-56 125 -5 -125 -5 -125 -30 0 -30 0 -3 198 -2 198 37 -3 38 -3 65 -147z"/>
<path d="M3487 2033 c-4 -3 -7 -33 -7 -65 l0 -58 60 0 c53 0 61 3 76 26 22 32
10 73 -26 91 -27 14 -92 17 -103 6z"/>
</g>
</svg>
