<?xml version="1.0" standalone="no"?>
<!DOCTYPE svg PUBLIC "-//W3C//DTD SVG 20010904//EN"
 "http://www.w3.org/TR/2001/REC-SVG-20010904/DTD/svg10.dtd">
<svg version="1.0" xmlns="http://www.w3.org/2000/svg"
 width="720.000000pt" height="337.000000pt" viewBox="0 0 720.000000 337.000000"
 preserveAspectRatio="xMidYMid meet">

<g transform="translate(0.000000,337.000000) scale(0.100000,-0.100000)"
fill="#EB4141" stroke="none">
<path d="M2063 2316 c-16 -24 -122 -195 -238 -379 -115 -185 -212 -336 -215
-336 -3 -1 -36 98 -74 219 l-70 220 -67 0 -68 0 19 -57 c10 -32 62 -195 115
-363 53 -168 100 -308 104 -313 5 -5 485 744 649 1015 l23 38 -75 0 -76 0 -27
-44z"/>
<path d="M1080 2032 c0 -7 299 -956 316 -1002 3 -9 21 10 49 55 25 39 45 74
45 79 0 5 -62 204 -137 443 l-138 433 -67 0 c-38 0 -68 -4 -68 -8z"/>
<path d="M3160 1565 l0 -335 64 0 64 0 4 153 c4 175 15 208 73 227 47 16 86
-3 102 -50 7 -21 12 -96 12 -182 l1 -148 66 0 66 0 -4 194 c-3 178 -5 197 -24
222 -32 44 -68 66 -117 71 -66 8 -111 -4 -146 -36 l-31 -29 0 124 0 124 -65 0
-65 0 0 -335z"/>
<path d="M4270 1565 l0 -335 65 0 65 0 0 73 c0 64 3 76 23 95 13 12 26 22 29
22 2 0 35 -43 72 -95 l68 -95 74 0 c89 0 91 -13 -30 149 -47 63 -86 119 -86
125 1 6 41 54 90 106 l89 95 -72 3 -72 3 -40 -43 c-22 -24 -65 -71 -95 -104
l-55 -62 3 199 4 199 -66 0 -66 0 0 -335z"/>
<path d="M2200 1805 l0 -55 85 0 85 0 0 -260 0 -260 70 0 70 0 0 260 0 260 85
0 85 0 0 55 0 55 -240 0 -240 0 0 -55z"/>
<path d="M2815 1704 c-90 -33 -135 -113 -135 -239 0 -168 73 -245 232 -245 32
0 76 7 98 16 40 16 40 16 40 70 0 30 -2 54 -4 54 -2 0 -20 -7 -39 -15 -53 -22
-128 -20 -155 5 -53 50 -53 189 0 242 17 17 29 19 77 15 31 -3 66 -8 77 -12
19 -6 24 0 39 40 11 27 14 49 9 54 -35 32 -170 40 -239 15z"/>
<path d="M3855 1708 c-109 -38 -165 -167 -135 -312 15 -74 69 -137 137 -160
59 -20 155 -20 221 -1 l52 16 0 49 c0 28 -1 50 -2 50 -2 0 -25 -7 -52 -15 -62
-19 -139 -19 -175 -1 -28 15 -51 53 -51 86 0 19 8 20 155 20 l155 0 0 46 c0
112 -53 200 -135 223 -49 13 -130 13 -170 -1z m146 -107 c16 -16 29 -39 29
-50 0 -20 -6 -21 -90 -21 -96 0 -101 3 -76 49 31 55 93 65 137 22z"/>
<path d="M4879 1692 c-45 -23 -59 -37 -83 -85 -51 -99 -38 -246 27 -315 47
-51 95 -67 197 -67 58 0 108 5 128 14 30 13 32 17 32 62 0 27 -2 49 -4 49 -2
0 -23 -7 -46 -15 -23 -8 -69 -15 -102 -15 -55 0 -63 3 -94 34 -21 21 -34 44
-34 60 l0 26 155 0 155 0 0 53 c0 77 -18 127 -59 168 -65 66 -181 79 -272 31z
m154 -73 c23 -11 38 -31 51 -71 5 -16 -4 -18 -89 -18 -52 0 -95 2 -95 4 0 23
28 70 49 81 32 17 53 18 84 4z"/>
<path d="M5504 1701 c-23 -11 -47 -27 -52 -38 -10 -16 -12 -15 -22 15 -11 30
-15 32 -61 32 l-49 0 0 -240 0 -240 64 0 64 0 4 158 c2 132 6 163 21 185 36
55 111 56 136 1 7 -15 11 -87 11 -184 l0 -160 64 0 64 0 4 159 c3 143 5 163
24 187 38 52 114 51 134 -1 6 -15 10 -98 10 -186 l0 -159 65 0 65 0 0 191 c0
158 -3 197 -17 226 -31 67 -143 93 -229 54 -23 -11 -47 -27 -52 -38 -10 -17
-12 -16 -39 9 -54 51 -135 63 -209 29z"/>
</g>
</svg>
